<svg width="28" height="28" viewBox="0 0 28 28" fill="none" xmlns="http://www.w3.org/2000/svg">
<path d="M11.7354 8.8H15.6354M6.87337 27H20.4974C24.0854 27 25.5154 24.803 25.6844 22.125L26.3604 11.387C26.4025 10.7212 26.3076 10.0538 26.0816 9.4261C25.8556 8.79839 25.5033 8.22371 25.0464 7.73757C24.5895 7.25143 24.0377 6.86416 23.4252 6.5997C22.8127 6.33524 22.1525 6.1992 21.4854 6.2C20.6924 6.2 19.9644 5.745 19.6004 5.043L18.6644 3.158C18.0664 1.975 16.5064 1 15.1804 1H12.2034C10.8644 1 9.30437 1.975 8.70637 3.158L7.77037 5.043C7.40637 5.745 6.67837 6.2 5.88537 6.2C3.06437 6.2 0.828374 8.579 1.01037 11.387L1.68637 22.125C1.84237 24.803 3.28537 27 6.87337 27Z" stroke="#666666" stroke-width="2" stroke-linecap="round" stroke-linejoin="round"/>
<path d="M13.6957 21.7977C16.0227 21.7977 17.9207 19.8997 17.9207 17.5727C17.9207 15.2457 16.0227 13.3477 13.6957 13.3477C11.3687 13.3477 9.4707 15.2457 9.4707 17.5727C9.4707 19.8997 11.3687 21.7977 13.6957 21.7977Z" stroke="#666666" stroke-width="2" stroke-linecap="round" stroke-linejoin="round"/>
</svg>
